HIERARCHY
ROOT root
{
	OFFSET 0.000000 0.000000 0.000000
	CHANNELS 6 Xposition Yposition Zposition Zrotation Yrotation Xrotation
	JOINT lhip
	{
		OFFSET 0.058581 -0.082280 -0.017664
		CHANNELS 3 Zrotation Yrotation Xrotation
		JOINT lknee
		{
			OFFSET 0.043451 -0.386469 0.008037
			CHANNELS 3 Zrotation Yrotation Xrotation
			JOINT lankle
			{
				OFFSET -0.014790 -0.426874 -0.037428
				CHANNELS 3 Zrotation Yrotation Xrotation
				JOINT ltoe
				{
					OFFSET 0.041054 -0.060286 0.122042
					CHANNELS 3 Zrotation Yrotation Xrotation
					End Site
					{
						OFFSET 0.000000 0.000000 0.000000
					}
				}
			}
		}
	}
	JOINT rhip
	{
		OFFSET -0.060310 -0.090513 -0.013543
		CHANNELS 3 Zrotation Yrotation Xrotation
		JOINT rknee
		{
			OFFSET -0.043257 -0.383688 -0.004843
			CHANNELS 3 Zrotation Yrotation Xrotation
			JOINT rankle
			{
				OFFSET 0.019056 -0.420046 -0.034562
				CHANNELS 3 Zrotation Yrotation Xrotation
				JOINT rtoe
				{
					OFFSET -0.034840 -0.062106 0.130323
					CHANNELS 3 Zrotation Yrotation Xrotation
					End Site
					{
						OFFSET 0.000000 0.000000 0.000000
					}
				}
			}
		}
	}
	JOINT lowerback
	{
		OFFSET 0.004439 0.124404 -0.038385
		CHANNELS 3 Zrotation Yrotation Xrotation
		JOINT upperback
		{
			OFFSET 0.004488 0.137956 0.026820
			CHANNELS 3 Zrotation Yrotation Xrotation
			JOINT chest
			{
				OFFSET -0.002265 0.056032 0.002855
				CHANNELS 3 Zrotation Yrotation Xrotation
				JOINT lowerneck
				{
					OFFSET -0.013390 0.211636 -0.033468
					CHANNELS 3 Zrotation Yrotation Xrotation
					JOINT upperneck
					{
						OFFSET 0.010113 0.088937 0.050410
						CHANNELS 3 Zrotation Yrotation Xrotation
						End Site
						{
							OFFSET 0.000000 0.000000 0.000000
						}
					}
				}
				JOINT lclavicle
				{
					OFFSET 0.071702 0.114000 -0.018898
					CHANNELS 3 Zrotation Yrotation Xrotation
					JOINT lshoulder
					{
						OFFSET 0.122921 0.045205 -0.019046
						CHANNELS 3 Zrotation Yrotation Xrotation
						JOINT lelbow
						{
							OFFSET 0.255332 -0.015649 -0.022946
							CHANNELS 3 Zrotation Yrotation Xrotation
							JOINT lwrist
							{
								OFFSET 0.265709 0.012698 -0.007375
								CHANNELS 3 Zrotation Yrotation Xrotation
								End Site
								{
									OFFSET 0.000000 0.000000 0.000000
								}
							}
						}
					}
				}
				JOINT rclavicle
				{
					OFFSET -0.082954 0.112472 -0.023707
					CHANNELS 3 Zrotation Yrotation Xrotation
					JOINT rshoulder
					{
						OFFSET -0.113228 0.046853 -0.008472
						CHANNELS 3 Zrotation Yrotation Xrotation
						JOINT relbow
						{
							OFFSET -0.260127 -0.014369 -0.031269
							CHANNELS 3 Zrotation Yrotation Xrotation
							JOINT rwrist
							{
								OFFSET -0.269108 0.006794 -0.006027
								CHANNELS 3 Zrotation Yrotation Xrotation
								End Site
								{
									OFFSET 0.000000 0.000000 0.000000
								}
							}
						}
					}
				}
			}
		}
	}
}
MOTION
Frames: 8
Frame Time: 0.033333
-1.924488 0.680818 0.975395 87.309516 -0.760451 85.600237 3.581859 0.615439 -16.255602 1.501128 12.728380 48.415624 0.889400 15.522146 -14.868609 0.000000 -0.000000 0.000000 1.503541 -0.475376 1.646450 1.605781 1.564218 13.089089 -0.602739 -4.459932 -19.567276 0.000000 -0.000000 0.000000 0.000443 3.702331 10.545305 2.158767 -2.202268 -0.297320 -0.106504 -1.114261 1.927444 1.978945 -5.743841 -5.854400 1.987507 -7.680016 -5.211303 -22.794382 7.166557 5.322478 -57.509286 4.204961 13.352182 -7.971599 -39.057100 31.302089 -7.554994 -11.139263 -10.235829 20.564524 -2.445537 1.164491 56.015584 2.019278 12.312692 -9.663306 49.208862 -4.398807 -0.877510 10.332882 -27.790565 
-1.885892 0.681167 0.974728 85.196620 -1.189310 85.829012 4.249652 0.810808 -19.947153 0.356150 15.242044 40.200312 0.550907 14.321873 -15.080283 0.000000 -0.000000 0.000000 0.525449 -1.609336 6.336778 1.390863 3.334744 8.895829 -0.133190 -3.125413 -19.798929 0.000000 -0.000000 0.000000 -0.521126 5.641562 10.573178 2.009825 -1.870568 -0.277606 0.150929 -0.104171 1.844863 2.213265 -5.538842 -5.689364 1.833518 -8.591846 -5.488691 -22.375498 9.114544 5.482452 -56.730302 6.940915 13.209685 -10.352754 -40.985111 33.006857 -7.413589 -11.481233 -10.763537 20.615267 -1.836921 1.496531 55.117922 4.665116 12.467510 -9.191584 51.577839 -5.052129 -1.723261 10.245680 -28.072789 
-1.845497 0.681830 0.969979 83.506064 -1.182156 85.924342 5.320679 1.376990 -22.743699 -1.161738 16.616983 31.058522 0.380420 14.463498 -13.993094 0.000000 -0.000000 0.000000 -0.801405 -3.183652 11.213555 1.648154 5.445587 4.819974 0.069624 -1.724785 -20.164870 0.000000 -0.000000 0.000000 -0.441810 7.245252 10.086850 1.824527 -1.625476 0.293281 0.252648 0.755993 2.116930 2.543261 -5.535205 -6.169170 1.718536 -9.775416 -5.414454 -22.100503 11.066506 5.382886 -55.661300 9.360178 12.908048 -12.940356 -42.666305 34.153062 -6.569573 -11.324662 -11.890550 20.641148 -1.422412 1.137685 53.952524 7.326909 12.682224 -7.635965 53.041992 -4.965818 -2.968064 10.668887 -28.025351 
-1.794639 0.683180 0.959493 81.758849 -0.722258 86.179560 6.700593 2.565042 -25.462954 -2.963096 15.167884 19.137782 -0.555551 12.573378 -13.358624 0.000000 -0.000000 0.000000 -2.365226 -4.850918 15.896922 2.194584 7.453128 2.277764 0.636434 -0.175194 -21.703854 0.000000 -0.000000 0.000000 -0.078685 8.538556 9.504152 1.717716 -1.334696 0.981435 0.439043 1.614333 2.341639 3.263865 -4.719530 -7.279816 1.445452 -10.934617 -5.032226 -21.703793 13.552990 4.871614 -54.832193 12.000169 12.582457 -14.828553 -43.852969 34.353579 -4.185993 -11.489675 -12.560280 20.869785 -1.144684 0.651911 52.423946 10.533619 12.589109 -5.648986 54.377214 -4.519111 -3.969003 11.207377 -27.320583 
-1.762852 0.685210 0.951680 80.848836 -0.469265 86.143037 7.396495 3.137029 -26.654095 -3.843410 12.985175 13.187504 -0.679402 11.353421 -12.205930 0.000000 -0.000000 0.000000 -3.542667 -5.307433 18.715631 2.656304 8.570162 1.205470 0.963601 0.403995 -22.673562 0.000000 -0.000000 0.000000 0.228768 9.006879 9.510894 1.569955 -1.047615 0.966531 0.587699 1.936649 2.586625 3.500326 -4.424904 -7.308165 1.054466 -11.314149 -5.126796 -21.754529 15.116747 4.220380 -54.294202 13.226622 12.227872 -15.335839 -43.335852 34.612509 -3.821280 -11.229453 -12.521490 20.834810 -0.959568 0.577296 51.678490 12.216264 12.591045 -4.309995 54.858844 -3.885219 -5.148698 11.116549 -27.175763 
-1.718840 0.688518 0.941323 79.763025 0.189949 86.082078 8.345704 3.752199 -27.826300 -3.631187 10.334528 7.696986 -1.489194 10.063858 -11.386040 0.000000 -0.000000 0.000000 -4.939409 -6.060039 22.103392 3.058146 9.719116 0.836749 1.431882 1.584379 -23.683182 0.000000 -0.000000 0.000000 1.073767 9.586986 9.392182 1.454317 -0.770559 1.672078 0.671113 2.488543 2.311831 3.765699 -4.198372 -7.624609 0.907565 -11.846419 -5.468922 -22.061900 16.006853 4.241939 -54.469314 14.608666 11.379142 -13.316512 -42.838653 32.872441 -5.053713 -10.445432 -12.728768 20.840933 -0.487142 0.626209 51.049991 13.652910 11.818219 -3.549832 55.361984 -3.740871 -4.909036 11.160857 -27.366427 
-1.672057 0.691794 0.931629 78.077826 0.358791 86.239084 9.335711 4.278589 -28.730844 -3.279814 11.148390 5.732276 -1.642791 9.468791 -10.529435 0.000000 -0.000000 0.000000 -7.152471 -6.353100 24.621126 3.310838 11.240921 1.365968 2.378105 3.404293 -23.775972 0.000000 -0.000000 0.000000 1.030404 10.602992 8.771690 1.429382 -0.494283 2.551239 0.772543 2.974772 1.986154 3.966878 -4.218884 -7.861049 1.064242 -11.796994 -5.561740 -22.358700 16.625606 4.145309 -54.766092 15.846869 10.724228 -10.674386 -41.573502 31.212635 -5.131362 -10.044169 -11.647265 21.087680 -0.153631 1.041508 50.386858 14.568188 11.265772 -2.447696 56.043847 -3.759591 -4.294955 11.215572 -28.049345 
-1.622356 0.698310 0.924627 77.833462 0.272886 86.725792 9.551951 3.351017 -29.991938 -3.331791 12.019299 7.724435 -1.239715 9.755765 -10.758043 0.000000 -0.000000 0.000000 -9.566217 -6.442167 26.644591 3.767846 11.705479 2.460220 4.169652 4.785567 -22.185054 0.000000 -0.000000 0.000000 0.985937 11.456490 7.587642 1.461244 -0.886452 3.036580 0.542433 2.992383 1.979134 4.288211 -4.545362 -7.689316 1.610769 -11.418298 -6.008849 -22.746825 16.820893 3.875034 -55.167911 16.708729 10.437899 -7.381578 -39.620531 28.861675 -5.651652 -9.113084 -11.548354 21.426306 -0.469294 0.942096 50.756691 14.432597 11.446989 -2.739059 56.068657 -3.926816 -2.926917 10.916770 -28.616884 
